<?xml version="1.0" encoding="UTF-8"?>
<svg id="Layer_1" data-name="Layer 1" xmlns="http://www.w3.org/2000/svg" width="128" height="128" viewBox="0 0 128 128">
  <defs>
    <style>
      .cls-1 {
        fill: #212121;
      }

      .cls-2 {
        fill: #ff8f52;
      }
    </style>
  </defs>
  <circle class="cls-1" cx="65.6492" cy="64.4244" r="61.9697"/>
  <path class="cls-2" d="M104.9996,31.7324l-.2052-.6973c-2.9473-10.0101-13.4933-15.7698-23.5086-12.8395l-37.9309,11.1085c-.3099.0782-.6193.1629-.9278.2539-9.9497,2.9358-16.8989,12.2316-16.8989,22.6055v52.3679c0,.4891.4695.8414.9391.7046l37.5605-10.9371c.3133-.0912.5287-.3783.5287-.7046v-30.82c0-.3237.212-.6091.5219-.7026l6.8166-2.057,20.9355-5.8478c4.3362-1.2113,7.971-3.9489,10.3207-7.7518,2.7058-4.3792,3.3015-9.7445,1.8483-14.6827ZM33.1555,96.3229c-.4696.1368-.9391-.2155-.9391-.7046v-43.4547c0-7.4302,4.9772-14.088,12.1035-16.1907,4.4982-1.3271,9.2084-.7602,13.2627,1.5972,1.1754.6834,2.246,1.4902,3.2011,2.4016.4179.3988.242,1.1006-.3168,1.247l-19.2524,5.0424c-.3753.0983-.6093.4717-.534.8523l.7199,3.641c.2164,1.0936.4917,2.047.842,2.9145,2.5226,6.251,8.4642,10.0826,14.874,10.0826.0025,0,.005,0,.0075,0,.4095-.0003.7446.3242.7446.7337v24.0908c0,.3263-.2154.6134-.5287.7046l-24.1844,7.0423ZM49.3465,51.0447l15.1071-3.9566c.3863-.1012.7839.1244.8934.5084.0667.2341.1287.4703.1848.7091l1.2988,5.5329c.0886.3773-.1315.7584-.5024.8703l-6.4219,1.9379c-4.2855,1.2921-8.9203-.6792-11.013-4.5294-.2302-.4234-.0129-.9506.4533-1.0727ZM97.5648,42.7294c-1.4608,2.4558-3.7684,4.2237-6.5334,4.9959l-16.8743,4.7136c-.402.1123-.8165-.1328-.9119-.5391l-1.576-6.7133c-.7493-3.1918-2.3199-6.1414-4.589-8.5079-1.7142-1.7878-3.5356-3.2831-5.4643-4.4859-.5356-.334-.4197-1.1447.1861-1.3221l21.3628-6.2563c6.4808-1.8956,13.3065,1.8313,15.2138,8.3095l.227.7713c.8911,3.0281.5728,6.3214-1.0408,9.0343Z"/>
</svg>